<svg width="162" height="164" viewBox="0 0 162 164" fill="none" xmlns="http://www.w3.org/2000/svg">
<rect x="12.3664" width="149.634" height="149.203" fill="black" fill-opacity="0.8"/>
<rect width="5.02696" height="79.4558" transform="matrix(0.866648 -0.49892 0.501081 0.8654 37.0993 56.6013)" fill="#636363"/>
<rect width="5.02696" height="79.4558" transform="matrix(0.866648 -0.49892 0.501081 0.8654 48.3941 50.0991)" fill="#636363"/>
<rect width="5.02696" height="79.4558" transform="matrix(0.866648 -0.49892 0.501081 0.8654 60.2269 43.2871)" fill="#636363"/>
<rect width="5.02696" height="79.4558" transform="matrix(0.866648 -0.49892 0.501081 0.8654 71.5218 36.7847)" fill="#636363"/>
<rect width="5.02696" height="79.4558" transform="matrix(0.866648 -0.49892 0.501081 0.8654 83.3546 29.9727)" fill="#636363"/>
<rect width="5.02696" height="79.4558" transform="matrix(0.866648 -0.49892 0.501081 0.8654 94.6495 23.4705)" fill="#636363"/>
<rect width="5.02696" height="79.4558" transform="matrix(0.866648 -0.49892 0.501081 0.8654 37.0993 61.5337)" fill="black"/>
<rect width="5.02696" height="79.4558" transform="matrix(0.866648 -0.49892 0.501081 0.8654 48.3941 55.0315)" fill="black"/>
<rect width="5.02696" height="79.4558" transform="matrix(0.866648 -0.49892 0.501081 0.8654 60.2269 48.2195)" fill="black"/>
<rect width="5.02696" height="79.4558" transform="matrix(0.866648 -0.49892 0.501081 0.8654 71.5218 41.717)" fill="black"/>
<rect width="5.02696" height="79.4558" transform="matrix(0.866648 -0.49892 0.501081 0.8654 83.3546 34.905)" fill="black"/>
<rect width="5.02696" height="79.4558" transform="matrix(0.866648 -0.49892 0.501081 0.8654 94.6495 28.4028)" fill="black"/>
<rect y="14.7969" width="149.634" height="149.203" fill="#B2E9B5" fill-opacity="0.68"/>
<rect width="5.02696" height="79.4558" transform="matrix(0.866648 -0.49892 0.501081 0.8654 24.7329 71.3984)" fill="#636363"/>
<rect width="5.02696" height="79.4558" transform="matrix(0.866648 -0.49892 0.501081 0.8654 36.0277 64.896)" fill="#636363"/>
<rect width="5.02696" height="79.4558" transform="matrix(0.866648 -0.49892 0.501081 0.8654 47.8605 58.084)" fill="#636363"/>
<rect width="5.02696" height="79.4558" transform="matrix(0.866648 -0.49892 0.501081 0.8654 59.1554 51.5818)" fill="#636363"/>
<rect width="5.02696" height="79.4558" transform="matrix(0.866648 -0.49892 0.501081 0.8654 70.9882 44.7698)" fill="#636363"/>
<rect width="5.02696" height="79.4558" transform="matrix(0.866648 -0.49892 0.501081 0.8654 82.2831 38.2673)" fill="#636363"/>
<rect width="5.02696" height="79.4558" transform="matrix(0.866648 -0.49892 0.501081 0.8654 24.7329 76.3308)" fill="black"/>
<rect width="5.02696" height="79.4558" transform="matrix(0.866648 -0.49892 0.501081 0.8654 36.0277 69.8284)" fill="black"/>
<rect width="5.02696" height="79.4558" transform="matrix(0.866648 -0.49892 0.501081 0.8654 47.8605 63.0164)" fill="black"/>
<rect width="5.02696" height="79.4558" transform="matrix(0.866648 -0.49892 0.501081 0.8654 59.1554 56.5142)" fill="black"/>
<rect width="5.02696" height="79.4558" transform="matrix(0.866648 -0.49892 0.501081 0.8654 70.9882 49.7019)" fill="black"/>
<rect width="5.02696" height="79.4558" transform="matrix(0.866648 -0.49892 0.501081 0.8654 82.2831 43.1997)" fill="black"/>
</svg>
