<svg width="137" height="164" viewBox="0 0 137 164" fill="none" xmlns="http://www.w3.org/2000/svg">
<circle cx="68.2404" cy="80.8284" r="54.3273" fill="black"/>
<mask id="mask0" mask-type="alpha" maskUnits="userSpaceOnUse" x="0" y="0" width="109" height="109">
<circle cx="54.3273" cy="54.3273" r="54.3273" fill="#F15100"/>
</mask>
<g mask="url(#mask0)">
<rect x="-18.1638" y="28.6809" width="7.36667" height="116.605" transform="rotate(-30 -18.1638 28.6809)" fill="#636363"/>
<rect x="-18.1638" y="28.6809" width="7.36667" height="116.605" transform="rotate(-30 -18.1638 28.6809)" fill="#636363"/>
<rect x="-1.62381" y="19.1315" width="7.36667" height="116.605" transform="rotate(-30 -1.62381 19.1315)" fill="#636363"/>
<rect x="-1.62381" y="19.1315" width="7.36667" height="116.605" transform="rotate(-30 -1.62381 19.1315)" fill="#636363"/>
<rect x="15.7039" y="9.12732" width="7.36667" height="116.605" transform="rotate(-30 15.7039 9.12732)" fill="#636363"/>
<rect x="15.7039" y="9.12732" width="7.36667" height="116.605" transform="rotate(-30 15.7039 9.12732)" fill="#636363"/>
<rect x="32.2439" y="-0.421997" width="7.36667" height="116.605" transform="rotate(-30 32.2439 -0.421997)" fill="#636363"/>
<rect x="32.2439" y="-0.421997" width="7.36667" height="116.605" transform="rotate(-30 32.2439 -0.421997)" fill="#636363"/>
<rect x="49.5715" y="-10.4263" width="7.36667" height="116.605" transform="rotate(-30 49.5715 -10.4263)" fill="#636363"/>
<rect x="49.5715" y="-10.4263" width="7.36667" height="116.605" transform="rotate(-30 49.5715 -10.4263)" fill="#636363"/>
<rect x="66.1115" y="-19.9756" width="7.36667" height="116.605" transform="rotate(-30 66.1115 -19.9756)" fill="#636363"/>
<rect x="66.1115" y="-19.9756" width="7.36667" height="116.605" transform="rotate(-30 66.1115 -19.9756)" fill="#636363"/>
</g>
<mask id="mask1" mask-type="alpha" maskUnits="userSpaceOnUse" x="68" y="95" width="69" height="70">
<circle cx="102.603" cy="129.799" r="34.201" transform="rotate(-90 102.603 129.799)" fill="#F15100"/>
</mask>
<g mask="url(#mask1)">
<rect x="86.4577" y="175.435" width="4.63758" height="73.407" transform="rotate(-120 86.4577 175.435)" fill="#B2E9B5"/>
<rect x="80.4458" y="165.022" width="4.63758" height="73.407" transform="rotate(-120 80.4458 165.022)" fill="#B2E9B5"/>
<rect x="74.1479" y="154.114" width="4.63758" height="73.407" transform="rotate(-120 74.1479 154.114)" fill="#B2E9B5"/>
<rect x="68.1362" y="143.701" width="4.63758" height="73.407" transform="rotate(-120 68.1362 143.701)" fill="#B2E9B5"/>
<rect x="61.8382" y="132.793" width="4.63758" height="73.407" transform="rotate(-120 61.8382 132.793)" fill="#B2E9B5"/>
<rect x="55.8265" y="122.38" width="4.63758" height="73.407" transform="rotate(-120 55.8265 122.38)" fill="#B2E9B5"/>
</g>
</svg>
