<?xml version="1.0" standalone="no"?>
<!DOCTYPE svg PUBLIC "-//W3C//DTD SVG 20010904//EN"
 "http://www.w3.org/TR/2001/REC-SVG-20010904/DTD/svg10.dtd">
<svg version="1.0" xmlns="http://www.w3.org/2000/svg"
 width="700.000000pt" height="700.000000pt" viewBox="0 0 700.000000 700.000000"
 preserveAspectRatio="xMidYMid meet">
<metadata>
Created by potrace 1.11, written by Peter Selinger 2001-2013
</metadata>
<g transform="translate(0.000000,700.000000) scale(0.100000,-0.100000)"
fill="#000000" stroke="none">
<path d="M2947 6844 c-1 -1 -67 -5 -147 -8 -170 -7 -235 -13 -350 -32 -418
-70 -795 -216 -1100 -426 -148 -101 -189 -134 -278 -220 -244 -235 -442 -560
-595 -973 -54 -146 -105 -313 -132 -435 -2 -8 -12 -53 -23 -100 -17 -72 -32
-146 -47 -235 -8 -44 -26 -183 -30 -230 -3 -27 -7 -75 -10 -105 -6 -65 -6
-418 0 -475 2 -22 7 -69 10 -105 4 -36 8 -67 10 -70 2 -3 6 -29 9 -58 8 -79
63 -280 106 -390 94 -242 214 -426 400 -613 187 -188 370 -309 655 -432 327
-140 789 -252 1215 -292 64 -6 82 -8 210 -20 105 -10 103 -9 95 -69 -3 -28
-15 -70 -25 -93 -10 -23 -24 -68 -30 -100 -61 -293 -343 -703 -686 -997 -105
-89 -133 -124 -141 -170 -6 -41 23 -76 65 -76 56 0 301 76 477 147 336 138
632 348 851 608 133 158 298 434 394 660 23 55 47 106 52 112 6 7 26 15 47 19
115 20 400 79 486 100 702 176 1331 512 1709 913 28 30 60 64 71 75 104 109
262 339 349 509 82 162 98 202 166 402 31 94 65 186 76 205 17 32 18 63 20
345 1 171 -2 337 -6 370 -4 33 -11 85 -14 115 -29 229 -145 529 -295 760 -153
235 -365 445 -621 614 -80 53 -306 186 -315 186 -2 0 -57 25 -122 56 -462 219
-1063 394 -1648 479 -22 4 -47 8 -55 10 -8 2 -51 7 -95 11 -44 3 -83 8 -86 10
-17 10 -612 26 -622 18z m468 -217 c11 -3 56 -8 100 -11 432 -36 1057 -191
1540 -381 540 -213 848 -412 1121 -723 211 -241 383 -594 429 -882 3 -19 10
-60 15 -90 25 -153 31 -381 11 -442 -9 -28 -19 -36 -48 -44 -29 -7 -43 -18
-60 -49 -12 -22 -23 -48 -23 -57 0 -27 29 -48 66 -48 44 0 44 -11 4 -156 -43
-155 -59 -194 -78 -194 -9 0 -40 22 -68 48 -84 78 -77 75 -117 56 -39 -19 -59
-49 -59 -88 0 -36 63 -111 129 -153 63 -40 64 -36 -9 -161 -68 -118 -131 -207
-146 -207 -18 0 -91 74 -155 157 -29 37 -62 72 -75 79 -31 18 -71 2 -98 -39
-38 -56 -17 -99 130 -258 54 -58 84 -98 80 -107 -6 -17 -242 -247 -252 -247
-15 0 -106 125 -165 227 -73 125 -86 132 -143 80 -28 -25 -37 -41 -36 -64 1
-31 35 -124 56 -153 6 -8 20 -31 30 -50 11 -19 39 -61 63 -93 25 -33 42 -62
38 -65 -3 -3 -33 -25 -68 -48 -44 -30 -65 -39 -74 -32 -7 5 -45 58 -84 116
-39 59 -78 115 -87 125 -32 36 -97 8 -122 -53 -16 -38 -7 -60 82 -197 33 -52
59 -95 57 -98 -6 -6 -238 -115 -324 -152 -282 -123 -636 -224 -987 -283 -69
-11 -135 -23 -146 -25 -11 -2 -36 -6 -56 -9 -79 -13 -120 -54 -161 -166 -82
-218 -217 -476 -328 -626 -63 -85 -240 -264 -327 -330 -132 -102 -379 -244
-489 -282 -32 -11 -40 -3 -18 20 7 7 56 67 108 133 99 125 146 195 244 357 60
98 72 109 142 123 37 7 83 46 84 72 0 10 2 26 4 36 4 21 -23 37 -64 37 -35 0
-39 13 -17 63 12 30 22 36 88 55 92 26 117 46 125 94 9 59 -7 71 -84 63 l-64
-6 5 33 c21 127 29 216 22 244 -10 38 -38 44 -271 59 -98 6 -154 15 -160 24
-2 5 22 39 55 77 33 37 63 78 66 90 7 28 -11 64 -32 64 -24 0 -80 -29 -106
-54 -13 -12 -60 -52 -106 -89 l-82 -67 -54 5 c-29 3 -61 7 -72 9 -10 3 -75 16
-143 30 -68 14 -128 29 -133 34 -7 7 19 40 182 222 132 147 170 193 171 209 4
51 -16 75 -55 65 -27 -6 -176 -150 -285 -273 -31 -36 -71 -81 -89 -100 -18
-20 -38 -48 -45 -63 -6 -16 -18 -28 -25 -28 -12 0 -333 106 -399 132 -18 7
-33 15 -33 18 0 3 16 16 36 29 35 24 84 77 235 251 138 158 156 189 145 235
-7 29 -29 37 -62 25 -31 -12 -48 -30 -179 -180 -195 -224 -247 -293 -238 -316
10 -25 -20 -15 -142 52 -191 104 -190 66 -12 298 234 305 247 325 245 366 -3
34 -4 35 -42 34 -42 -2 -77 -31 -151 -128 -16 -22 -39 -51 -51 -65 -12 -14
-74 -96 -139 -181 -64 -85 -119 -154 -122 -153 -11 3 -243 235 -243 242 0 5 7
14 15 21 9 7 40 55 70 106 70 118 140 211 305 403 177 206 200 237 200 271 0
37 -34 64 -62 49 -27 -15 -113 -104 -232 -240 -167 -191 -234 -278 -317 -411
-30 -48 -56 -88 -59 -88 -5 0 -92 149 -110 191 -10 22 -8 31 14 64 14 21 26
42 26 47 0 6 6 24 14 41 7 18 20 48 27 67 38 99 148 276 340 546 71 100 136
198 144 218 14 34 14 37 -5 56 -27 27 -73 19 -105 -18 -62 -70 -330 -460 -417
-607 -10 -16 -38 -69 -63 -117 -24 -47 -49 -89 -54 -92 -5 -4 -19 22 -30 56
-55 169 -60 243 -22 359 39 116 101 269 123 301 10 14 18 30 18 34 0 24 169
264 228 323 22 22 32 58 26 91 -6 29 -19 35 -64 31 -22 -2 -138 -127 -197
-212 -49 -71 -66 -100 -121 -199 -13 -25 -40 -73 -59 -107 -19 -35 -36 -63
-38 -63 -2 0 -2 24 0 53 2 28 7 111 10 182 3 72 8 146 10 165 2 19 6 62 10 95
3 33 10 87 15 120 5 33 11 77 14 97 3 21 11 59 17 85 6 27 12 57 15 68 2 11 6
31 9 45 3 14 7 34 9 45 4 19 41 161 66 250 156 560 432 972 835 1246 115 77
107 73 260 149 211 104 471 187 705 225 19 3 46 7 60 10 14 3 39 7 55 10 17 3
66 8 110 12 44 3 81 7 83 8 5 5 695 -4 717 -8z"/>
</g>
</svg>
